<svg id="レイヤー_1" data-name="レイヤー 1" xmlns="http://www.w3.org/2000/svg" viewBox="0 0 512 512"><defs><style>.cls-1{font-size:35.43px;fill:#9a8b5c;font-family:Cardo-Bold, Cardo;font-weight:700;}.cls-2{fill:#4d4545;}.cls-3{fill:#404040;}.cls-4{fill:#643f33;}.cls-5{fill:#bc6974;}.cls-6{fill:#4d4d4d;}.cls-7{fill:#975e4d;}</style></defs><title>logo</title><text class="cls-1" transform="translate(158.38 497.91) scale(1.03 1)">SINCE 2018</text><path class="cls-2" d="M97.13,455c-.69,0-1.15-.42-1.36-1.27q-5-15.6-10-32.12-4.64,15.15-9.3,31.24a3.44,3.44,0,0,1-1,1.81A2.7,2.7,0,0,1,74,455H67.72a1,1,0,0,1-.82-.35,3,3,0,0,1-.53-1.11c-7.69-26.45-15.26-54.8-22.63-85.41a12.21,12.21,0,0,0-1.36-3.4,14.47,14.47,0,0,0-1.88-2.53,17.35,17.35,0,0,0-3.31-2.71,6.21,6.21,0,0,1-.71-.49c-.28-.21-.56-.41-.84-.59l-.74-.5a2.56,2.56,0,0,0-.4-.24c-.22-.08-.33-.3-.33-.68v-3.12c0-.37.11-.52.33-.44q13.85,4.92,27.85,9.2c.17.06.27.14.29.26a1.36,1.36,0,0,1,0,.36c0,.94,0,1.88,0,2.83a1,1,0,0,1-.06.3c0,.11-.13.15-.27.11l-.77-.22A4.52,4.52,0,0,0,59,366.1a2.62,2.62,0,0,0-1.41,1,3.71,3.71,0,0,0-.58,1.69,15.77,15.77,0,0,0-.1,1.74,13.73,13.73,0,0,0,.29,2.76c.19.88.36,1.79.51,2.74C63,396.25,68.23,415.4,73.56,433.66a.92.92,0,0,0,.83.68.43.43,0,0,0,.39-.17,2.79,2.79,0,0,0,.25-.47q3.6-12.36,7.17-24.14-4.89-16.55-9.73-34.1a14.08,14.08,0,0,0-1.74-3.88,8.11,8.11,0,0,0-2.23-2.49,12.88,12.88,0,0,0-1.36-.95,6.12,6.12,0,0,0-1-.53c-.23-.07-.34-.27-.35-.61,0-.93,0-1.86,0-2.8,0-.33.11-.47.33-.4q20.19,6,40.63,10.76a.35.35,0,0,1,.3.24,1.26,1.26,0,0,1,0,.29l0,2.46a1,1,0,0,1,0,.3c0,.09-.13.11-.3.07l-1.59-.35a5.85,5.85,0,0,0-2.72-.05,4.23,4.23,0,0,0-2.1,1.28,9.85,9.85,0,0,0-1.7,2.65,36.12,36.12,0,0,0-1.51,4q-2.52,7.69-5.05,15.63,5.36,17.67,10.76,34.27a.9.9,0,0,0,.83.62c.29,0,.5-.18.64-.59,5.48-17.29,10.94-33.72,16.41-49.44a6.94,6.94,0,0,0,.47-2.44,2.6,2.6,0,0,0-1-2.15,9.3,9.3,0,0,0-3.61-1.3l-2.68-.56c-.23,0-.34-.21-.35-.51l0-2.42a.92.92,0,0,1,0-.26c0-.1.13-.14.3-.1q10.25,2.25,20.53,4.16a.36.36,0,0,1,.31.21,1,1,0,0,1,0,.27c0,.76,0,1.52,0,2.29a.77.77,0,0,1,0,.27c0,.09-.12.11-.3.08l-2-.37a3,3,0,0,0-1.81.17,3.79,3.79,0,0,0-1.43,1.26,12.1,12.1,0,0,0-1.25,2.33c-.4,1-.82,2.07-1.26,3.37-7,19.75-13.9,40.59-20.87,62.84a3,3,0,0,1-1,1.66,2.89,2.89,0,0,1-1.5.31Zm-5.3-76.27a8,8,0,0,0,.34-1.32,6.64,6.64,0,0,0,0-1c0-1.24-1-2.1-2.94-2.59a4.23,4.23,0,0,0-2-.11,2.56,2.56,0,0,0-1.21.65,2.42,2.42,0,0,0-.6,1.13,5.56,5.56,0,0,0-.16,1.33,9,9,0,0,0,.15,1.4c.09.5.25,1.18.47,2.05s.54,2,.94,3.38.93,3.21,1.59,5.43Q90.17,383.84,91.83,378.75Z"/><path class="cls-2" d="M168.63,447.3a4.51,4.51,0,0,0,1.33,1.8,5.19,5.19,0,0,0,2.09,1,12.17,12.17,0,0,0,2.75.31c.23,0,.35.13.35.39,0,.86,0,1.71,0,2.57a.77.77,0,0,1,0,.27c0,.08-.13.11-.3.11l-25.56-.07a.27.27,0,0,1-.28-.15.56.56,0,0,1-.07-.25l-.05-2.72a.74.74,0,0,1,.06-.25.27.27,0,0,1,.28-.15A15.44,15.44,0,0,0,152,450a4.24,4.24,0,0,0,2.09-.95,4.64,4.64,0,0,0,1.3-2.11,11.87,11.87,0,0,0,.41-3.76q-.41-25-.83-49.92a8.41,8.41,0,0,0-.5-2.89,5.76,5.76,0,0,0-1.34-2A6.33,6.33,0,0,0,151,387a12.88,12.88,0,0,0-2.77-.73.41.41,0,0,1-.35-.46c0-.9,0-1.81,0-2.72,0-.26.11-.38.34-.34q12.84,2.1,25.74,3.7a.34.34,0,0,1,.29.18.8.8,0,0,1,.07.25c0,.86,0,1.72,0,2.57a.46.46,0,0,1-.07.23c0,.1-.13.13-.28.11a16.72,16.72,0,0,0-2.76-.11,3.83,3.83,0,0,0-2.1.68,3.73,3.73,0,0,0-1.32,1.91,10.44,10.44,0,0,0-.42,3.61q.39,24.33.77,48.67A7.4,7.4,0,0,0,168.63,447.3Z"/><path class="cls-2" d="M190.76,453.65a.38.38,0,0,1-.14-.25c0-.69,0-1.37,0-2,0-.25.11-.37.34-.37H192c.4,0,.8,0,1.19,0l1.06-.09a2,2,0,0,0,.73-.18,4.93,4.93,0,0,0,1.76-1.46,6.69,6.69,0,0,0,1-2.11,12.86,12.86,0,0,0,.47-2.62c.07-.95.11-2,.09-3q-.27-23-.55-45.93a2.71,2.71,0,0,0-1-2.08,7.77,7.77,0,0,0-2.2-1.34,15.52,15.52,0,0,0-2.55-.76c-.86-.17-1.51-.27-1.94-.32a.31.31,0,0,1-.29-.16.75.75,0,0,1-.07-.24c0-.68,0-1.36,0-2.05a.56.56,0,0,1,.06-.22c0-.09.13-.13.28-.11q9.9,1,19.83,1.65c12.73,15.27,25.37,29.61,37.88,43.74a3.74,3.74,0,0,1,.31.33.26.26,0,0,0,.21.11c.12,0,.19,0,.22-.13a.84.84,0,0,0,0-.27l0-26.3a66.87,66.87,0,0,0-.32-7,10.48,10.48,0,0,0-1.15-4,4,4,0,0,0-2.24-1.86,12.42,12.42,0,0,0-3.6-.51l-2.23,0a.32.32,0,0,1-.29-.14.6.6,0,0,1-.06-.23c0-.65,0-1.3,0-2a.56.56,0,0,1,.06-.22.29.29,0,0,1,.29-.13q12.06.28,24.14.14c.17,0,.28,0,.3.13a.68.68,0,0,1,.05.22v1.95a.67.67,0,0,1-.07.22.29.29,0,0,1-.29.13,10.15,10.15,0,0,0-2.26.38,13.59,13.59,0,0,0-2.69,1,8.32,8.32,0,0,0-2.26,1.64,3.11,3.11,0,0,0-.95,2.22v52.35a2.13,2.13,0,0,1-.35,1.26,2.66,2.66,0,0,1-.88.82,4.26,4.26,0,0,1-1.17.46,4.53,4.53,0,0,1-1.15.16,6.68,6.68,0,0,1-2-.38,5.34,5.34,0,0,1-2.27-1.66c-13.64-15.46-27.44-31.06-41.35-47.75a3.15,3.15,0,0,0-.44-.41.85.85,0,0,0-.35-.09c-.15,0-.22.14-.22.45q.22,20.34.44,40.7a4.14,4.14,0,0,0,.61,2.22,5.75,5.75,0,0,0,1.51,1.6,7.69,7.69,0,0,0,2,1.06,17,17,0,0,0,2.17.62,12.73,12.73,0,0,0,1.9.3c.57.05,1,.08,1.28.08a.3.3,0,0,1,.3.18.41.41,0,0,1,.05.18c0,.66,0,1.32,0,2a.46.46,0,0,1-.07.23c0,.09-.13.13-.28.13q-11.89,0-23.78,0A.35.35,0,0,1,190.76,453.65Z"/><path class="cls-2" d="M274.07,451.56a.82.82,0,0,1,0-.2c0-.11.13-.16.31-.16h.95c1.21-.09,2.45-.15,3.72-.17a12.11,12.11,0,0,0,3.47-.5,5.25,5.25,0,0,0,2.56-1.66,5.71,5.71,0,0,0,1-3.7l.33-45.86a5,5,0,0,0-.68-2.82A5.09,5.09,0,0,0,284,394.8a9.14,9.14,0,0,0-2.58-.9q-1.45-.27-2.94-.45l-.92,0c-.15,0-.24,0-.28-.12a.46.46,0,0,1-.07-.22c0-.58,0-1.16,0-1.74a.46.46,0,0,1,.07-.22.28.28,0,0,1,.28-.14q21.85-.77,43.64-3a1.6,1.6,0,0,1,1.13.19,1.82,1.82,0,0,1,.42,1.28q.28,7.44.58,14.89c0,.15-.13.28-.37.38a2.93,2.93,0,0,1-.68.17,3.29,3.29,0,0,1-.7,0,.73.73,0,0,1-.47-.25,3.15,3.15,0,0,1-.42-1.34c-.08-.6-.17-1.26-.26-2s-.23-1.5-.4-2.29a7.88,7.88,0,0,0-.83-2.16,4.87,4.87,0,0,0-1.52-1.65,5.11,5.11,0,0,0-2.5-.83q-7.8.66-15.62,1.15a.55.55,0,0,0-.57.62l-.21,21.6c0,.31.14.45.43.44q6.22-.24,12.46-.55a8.24,8.24,0,0,0,2.16-.41,4.72,4.72,0,0,0,1.88-1.18,6.4,6.4,0,0,0,1.34-2.28,11.62,11.62,0,0,0,.54-3.67c0-.24.12-.38.36-.39l1.7-.12c.23,0,.34.11.34.35q-.14,10.66-.28,21.31c0,.16-.05.26-.14.31a.49.49,0,0,1-.22.08l-1.69.06c-.14,0-.24,0-.28-.13a.6.6,0,0,1-.06-.23,14.23,14.23,0,0,0-.45-4.18,6.1,6.1,0,0,0-1.29-2.44,3.71,3.71,0,0,0-1.88-1.12,8.17,8.17,0,0,0-2.23-.21q-6.17.27-12.32.46c-.29,0-.43.17-.43.47q-.1,9.9-.2,19.79a4.84,4.84,0,0,0,.37,2.11,2.85,2.85,0,0,0,1.05,1.19,4.21,4.21,0,0,0,1.53.53,10.77,10.77,0,0,0,1.82.12l11.82-.1a7.07,7.07,0,0,0,4.22-1.28,10.34,10.34,0,0,0,2.77-3.05,15,15,0,0,0,1.59-3.72,22.15,22.15,0,0,0,.67-3.3,1.45,1.45,0,0,1,.58-1,1.93,1.93,0,0,1,1.09-.39,1.2,1.2,0,0,1,.52.17.49.49,0,0,1,.29.42q-.84,8.64-1.67,17.23a1.61,1.61,0,0,1-.25.44.43.43,0,0,1-.37.22q-25.06,0-50.13.06-.25,0-.3-.15a.92.92,0,0,1,0-.2v-.63C274.06,452.42,274.07,452,274.07,451.56Z"/><path class="cls-2" d="M341.17,451.21a1.16,1.16,0,0,1,.05-.22c0-.11.13-.17.31-.17a5.3,5.3,0,0,0,.82-.11l1.17-.2c.41-.07.78-.15,1.13-.23l.74-.18a5.77,5.77,0,0,0,3.47-2.12,6.4,6.4,0,0,0,1-3.63q.42-25,.83-50a6.45,6.45,0,0,0-.85-3.76,5.18,5.18,0,0,0-2.08-1.85,5.89,5.89,0,0,0-2.29-.57,14.27,14.27,0,0,0-1.5,0l-1.66.22a.25.25,0,0,1-.28-.11.6.6,0,0,1-.06-.23c0-.71,0-1.42,0-2.13a.64.64,0,0,1,0-.22c0-.09.13-.16.31-.21l.2,0,.63-.11,1.39-.24,2.58-.43c1.59-.26,3.3-.56,5.11-.9l5.51-1.05,5.5-1.08,5.1-1,4.38-.79a17.69,17.69,0,0,1,6.95.1,14.93,14.93,0,0,1,6.35,3,16.33,16.33,0,0,1,4.6,6.16,22.07,22.07,0,0,1,1.67,9.46,25.43,25.43,0,0,1-.88,6.51,21.11,21.11,0,0,1-2.22,5.2,20,20,0,0,1-3.3,4.11,28.9,28.9,0,0,1-4.13,3.24q6.33,12.08,12.67,25a32.85,32.85,0,0,0,3.83,6.11,11.91,11.91,0,0,0,5.17,3.87c.23.08.37.18.41.31a1.65,1.65,0,0,1,.06.48,1.46,1.46,0,0,1-.36,1.13,1.73,1.73,0,0,1-1.09.28,32.19,32.19,0,0,1-4.12-.3,31,31,0,0,1-4.64-1,24.61,24.61,0,0,1-4.4-1.75,11.54,11.54,0,0,1-3.48-2.65,24.41,24.41,0,0,1-2.75-3.73q-1.38-2.25-2.79-4.82c-.94-1.7-1.86-3.47-2.76-5.29s-1.79-3.59-2.64-5.31-1.66-3.3-2.44-4.76-1.5-2.69-2.15-3.7l-6.74,0-.35,0a.73.73,0,0,0-.43.13.67.67,0,0,0-.18.22,1.13,1.13,0,0,0,0,.4q-.18,10.77-.37,21.53a8.43,8.43,0,0,0,.26,2.37,4,4,0,0,0,1,1.72,5.06,5.06,0,0,0,1.84,1.17,13.3,13.3,0,0,0,2.78.68l.75.14,1.08.22c.39.08.77.16,1.14.22a6.22,6.22,0,0,0,.95.09q.27,0,.3.15a1,1,0,0,1,0,.26l0,2.28a.6.6,0,0,1-.07.26.28.28,0,0,1-.28.16l-30.49.09c-.14,0-.23-.23-.27-.68s0-.87,0-1.25Zm21.61-34.59a2.25,2.25,0,0,0,.19.71.62.62,0,0,0,.62.33l1.16.07a14.19,14.19,0,0,0,2.17-.06,13.55,13.55,0,0,0,6.3-2,12.46,12.46,0,0,0,4-4.18,17.7,17.7,0,0,0,2.06-5.72,37.85,37.85,0,0,0,.65-6.54,22.44,22.44,0,0,0-.79-6.54,14.48,14.48,0,0,0-2.44-5,9.52,9.52,0,0,0-3.84-3,8.72,8.72,0,0,0-5-.48c-.41.06-.73.13-1,.18l-.67.16-.74.18-1.15.26a2.8,2.8,0,0,0-.68.24.75.75,0,0,0-.42.75q-.25,14.55-.5,29.1Z"/><path class="cls-2" d="M436,422.67a1.28,1.28,0,0,0-.12-.6c-5.73-12.92-11.42-25.1-17.1-36.67q-.71-1.42-1.53-2.85a17.8,17.8,0,0,0-1.8-2.62,10.59,10.59,0,0,0-2.15-2,5.37,5.37,0,0,0-2.54-.93l-.68,0c-.31,0-.64,0-1,0h-1l-.68,0c-.29,0-.56-.14-.81-.52a1.85,1.85,0,0,1-.37-1.07c0-.07,0-.21,0-.4a3.44,3.44,0,0,1,.09-.56,2.18,2.18,0,0,1,.2-.5.57.57,0,0,1,.35-.28Q421.52,370.12,436,366c.31-.09.51.06.59.45a5.4,5.4,0,0,1,.12,1.08c0,.41,0,.85-.08,1.32s-.21.74-.5.82l-2.17.84a5.88,5.88,0,0,0-1.76,1,4.67,4.67,0,0,0-1.16,1.68,6.85,6.85,0,0,0-.46,2.67,5.59,5.59,0,0,0,.48,2.49q6.36,13.38,12.75,27.9c.31.67.51,1.09.61,1.24a.43.43,0,0,0,.49.18c.2,0,.38-.23.54-.59s.36-.85.59-1.44q5.27-13.95,10.45-28.85c.4-1.12.81-2.36,1.23-3.71a14.15,14.15,0,0,0,.63-4,10.58,10.58,0,0,0-.3-2.87,2.48,2.48,0,0,0-1-1.41,2.7,2.7,0,0,0-1.54-.39,17.53,17.53,0,0,0-2.09.18c-.31.05-.49-.16-.55-.62a9.91,9.91,0,0,1-.07-1.29,8.72,8.72,0,0,1,.11-1.18,1,1,0,0,1,.62-.88q10.64-3.37,21.19-7.12c.22-.08.38.13.46.65a7.16,7.16,0,0,1,.13,1.12,3.09,3.09,0,0,1-.27,1.3,4.45,4.45,0,0,1-.68,1,5.12,5.12,0,0,1-.84.78l-.82.59a14.53,14.53,0,0,0-3.64,3.73,42.54,42.54,0,0,0-3,5.31c-.14.27-.34.7-.61,1.27s-.42.92-.45,1q-8.25,25.08-16.72,47.52-.07,11.42-.17,22.81a11.16,11.16,0,0,0,1.3,6q1.32,2.1,4.73,2.57a8.5,8.5,0,0,0,1.21,0l1.25,0a.26.26,0,0,1,.28.2,1.16,1.16,0,0,1,.06.33c0,1,0,2,0,2.92a1,1,0,0,1-.07.34.27.27,0,0,1-.28.2l-29.44.16a.27.27,0,0,1-.28-.18,1,1,0,0,1-.06-.3l0-2.66a1.05,1.05,0,0,1,.07-.3.3.3,0,0,1,.28-.19l1.24,0a8.14,8.14,0,0,0,1.23-.08,6.61,6.61,0,0,0,4.78-2.61,10.79,10.79,0,0,0,1.39-5.81Q435.93,432,436,422.67Z"/><path class="cls-3" d="M51.11,81.26a6.26,6.26,0,0,1-1,2.52,7.52,7.52,0,0,1-2.07,2.11,14,14,0,0,1-3,1.58,16.53,16.53,0,0,1-2.61.8,11.41,11.41,0,0,1-1.91.26,7.31,7.31,0,0,1-1.23,0,1.49,1.49,0,0,0-.51,0c-.06,0-.15.2-.26.51s-.2.61-.28.88L38,90q-1.2-2.88-2.38-5.76l.3-.12a11.08,11.08,0,0,0,1.3,1.26,15.75,15.75,0,0,0,1.48,1,9.13,9.13,0,0,0,1.51.74,5.93,5.93,0,0,0,1.37.34,10.18,10.18,0,0,0,1.57,0,6.32,6.32,0,0,0,1.74-.37,5.88,5.88,0,0,0,3.19-2.56,4.26,4.26,0,0,0,.21-3.73,3.51,3.51,0,0,0-2-2.13,5.19,5.19,0,0,0-1.42-.36,13.83,13.83,0,0,0-1.6-.06l-1.46,0-1.16.06-1.11,0c-.38,0-.84,0-1.38,0a7.88,7.88,0,0,1-1.85-.2,6.86,6.86,0,0,1-1.76-.69,6.43,6.43,0,0,1-1.49-1.16,5,5,0,0,1-1-1.63,6.09,6.09,0,0,1-.46-3,6,6,0,0,1,.91-2.54,7.68,7.68,0,0,1,2-2.06,11.41,11.41,0,0,1,2.74-1.47,12.34,12.34,0,0,1,2.5-.7,10.88,10.88,0,0,1,1.84-.13,5.31,5.31,0,0,1,1.15.12,3.22,3.22,0,0,0,.45.09c.06,0,.15-.19.26-.5s.21-.61.29-.91l.35-.13L46,69l-.35.13A11.5,11.5,0,0,0,44,67.58a8.94,8.94,0,0,0-2-1.19,7.14,7.14,0,0,0-2.25-.55,5.52,5.52,0,0,0-2.4.38,6.68,6.68,0,0,0-1.74,1,4.53,4.53,0,0,0-1.2,1.36,4,4,0,0,0-.5,1.69,4.41,4.41,0,0,0,.33,1.91,3.5,3.5,0,0,0,2,2.09,7.71,7.71,0,0,0,3.14.5c.47,0,.91,0,1.31,0l1.2-.07c.39,0,.78,0,1.19-.06l1.27,0a7.58,7.58,0,0,1,4,.93,5.57,5.57,0,0,1,2.43,3.06A5.71,5.71,0,0,1,51.11,81.26Z"/><path class="cls-3" d="M75.06,76.7q-9.41,3-18.72,6.37l-.11-.3a6.75,6.75,0,0,0,1.28-.89,2.92,2.92,0,0,0,.82-1.12,1.52,1.52,0,0,0,.07-.6c0-.25-.06-.53-.11-.85a9.37,9.37,0,0,0-.22-1c-.1-.34-.2-.66-.31-1s-.22-.66-.38-1.13l-.51-1.56c-.19-.57-.39-1.14-.6-1.74s-.41-1.18-.6-1.71l-2-5.76c-.12-.35-.26-.71-.4-1.08s-.29-.72-.43-1a5.15,5.15,0,0,0-.48-.85,1.27,1.27,0,0,0-.5-.47,2.45,2.45,0,0,0-1.23-.25,13.81,13.81,0,0,0-1.48.25l-.1-.3q8.71-3.12,17.51-6,1.89,2.1,3.75,4.22l-.27.25a15.54,15.54,0,0,0-6.13-2.48,8.25,8.25,0,0,0-2.14.25,28.14,28.14,0,0,0-3.62,1c-.44.15-.9.32-1.36.51s-.8.35-1,.46c.07.33.26,1,.57,2s.69,2.15,1.14,3.45l.65,1.9c.18.51.33.93.45,1.25s.22.57.28.75l.11.32.62-.21c.31-.11.67-.24,1.07-.4l1.19-.49a8.77,8.77,0,0,0,1-.48A5.66,5.66,0,0,0,64.18,67a3.43,3.43,0,0,0,.73-1.2,4.34,4.34,0,0,0,.24-1.38,16.11,16.11,0,0,0-.07-1.64l.37-.12Q67,67.33,68.55,72l-.38.12a9.82,9.82,0,0,0-1.41-1.71,5.26,5.26,0,0,0-1.58-1.15A4.22,4.22,0,0,0,63.76,69a6,6,0,0,0-1.75.22l-.8.23-.62.19-.63.22-.81.28a11.2,11.2,0,0,0,.36,1.23c.19.53.38,1.09.57,1.66l.31.89.35,1q.16.48.33.9l.26.72c.24.62.48,1.21.73,1.75a2.89,2.89,0,0,0,.78,1.14,2.09,2.09,0,0,0,1.52.14A15.31,15.31,0,0,0,66.69,79L68,78.49a16.54,16.54,0,0,0,1.65-.72,6.94,6.94,0,0,0,1.66-1.06,6.51,6.51,0,0,0,1.29-1.49,10.46,10.46,0,0,0,1-2,23.06,23.06,0,0,0,.8-2.68l.37,0Q74.92,73.61,75.06,76.7Z"/><path class="cls-3" d="M95.88,70.43l-.52-.3a3.74,3.74,0,0,1-.37-.24c-.13-.09-.31-.23-.53-.41s-.56-.47-1-.83L92,67.43c-.44-.37-.87-.73-1.31-1.08s-.91-.7-1.4-1-1.08-.73-1.74-1.14a12.51,12.51,0,0,0-1.75-.89A3.54,3.54,0,0,0,84,63a5.58,5.58,0,0,0-.94.15c-.19.06-.44.12-.73.19l1,3.39c.29,1,.54,1.76.76,2.42s.4,1.17.56,1.63a2.3,2.3,0,0,0,.68,1,3,3,0,0,0,1.2.51,4.67,4.67,0,0,0,2.12-.12l.09.3q-5,1.45-9.87,3l-.09-.3a9.26,9.26,0,0,0,1.36-.82A2.54,2.54,0,0,0,81,73.31a1.37,1.37,0,0,0,.08-.61,5.51,5.51,0,0,0-.11-.85c-.06-.31-.13-.64-.22-1s-.17-.67-.27-1-.2-.66-.33-1.14-.29-1-.46-1.58-.34-1.16-.52-1.76-.37-1.2-.54-1.73c-.59-1.95-1.19-3.89-1.79-5.84-.11-.36-.23-.72-.35-1.09s-.26-.7-.39-1a4.82,4.82,0,0,0-.44-.85,1.19,1.19,0,0,0-.48-.49,2.46,2.46,0,0,0-1.27-.31,11.23,11.23,0,0,0-1.54.17l-.09-.3,1.31-.41,2.45-.78,2.75-.85,2.24-.67c1.43-.43,2.72-.76,3.85-1a8.09,8.09,0,0,1,3.28-.07A6.3,6.3,0,0,1,91,51.39a5.09,5.09,0,0,1,1.7,2.76,4.84,4.84,0,0,1,.14,2.12,5.66,5.66,0,0,1-.7,1.89,7.55,7.55,0,0,1-1.33,1.63,15.16,15.16,0,0,1-1.76,1.39l0,.09a3.78,3.78,0,0,1,1.26.48,10.06,10.06,0,0,1,1.3.86l2.48,2c.88.71,1.67,1.33,2.36,1.87a9.84,9.84,0,0,0,2.87,1.68,6.5,6.5,0,0,0,2.81.24l.08.3Q99.06,69.52,95.88,70.43ZM87.43,52.55a5.6,5.6,0,0,0-2.88-1.18,7.39,7.39,0,0,0-1.76,0,10.37,10.37,0,0,0-1.82.38c-.45.13-.81.25-1.08.35l-.62.25a2.24,2.24,0,0,1,0,.34q0,.14.06.36c0,.14.08.34.14.59s.16.61.28,1.08c.18.71.41,1.5.66,2.38l.75,2.55c.25.82.47,1.54.65,2.16s.3,1,.35,1.14c.86-.26,1.65-.53,2.37-.82a11.25,11.25,0,0,0,2-1.08,6.25,6.25,0,0,0,1.5-1.31,4.92,4.92,0,0,0,1.13-3.1A5.78,5.78,0,0,0,89,55,4.84,4.84,0,0,0,87.43,52.55Z"/><path class="cls-3" d="M103.35,68.37l-.08-.3a6.46,6.46,0,0,0,1.34-.78,3.13,3.13,0,0,0,.93-1.09,1.08,1.08,0,0,0,.1-.57,5.25,5.25,0,0,0-.08-.82c0-.31-.11-.64-.19-1s-.15-.67-.24-1-.17-.67-.29-1.16-.24-1-.38-1.59-.29-1.17-.45-1.78-.32-1.21-.46-1.76c-.52-2-1-3.93-1.55-5.9l-.28-1.09a9.84,9.84,0,0,0-.32-1,5.15,5.15,0,0,0-.36-.81,1.38,1.38,0,0,0-.45-.52,2.74,2.74,0,0,0-1.31-.45,7.32,7.32,0,0,0-1.58.09l-.08-.31q4.81-1.29,9.65-2.5l.08.31a8.09,8.09,0,0,0-1.37.7,2.08,2.08,0,0,0-1,1.27,3,3,0,0,0,0,1.38q.18.8.33,1.5c.13.51.25,1,.37,1.51s.24,1,.37,1.5l.4,1.58c.14.53.28,1.1.44,1.73.59,2.28,1.17,4.57,1.76,6.85.15.59.3,1.15.46,1.69a2.22,2.22,0,0,0,.58,1.08,2.38,2.38,0,0,0,1.39.49,6.44,6.44,0,0,0,1.54,0l.08.3Q108.06,67.11,103.35,68.37Z"/><path class="cls-3" d="M129,62.11l-.07-.31a2.49,2.49,0,0,0,.45-.16,3.73,3.73,0,0,0,.7-.38,2.21,2.21,0,0,0,.6-.58.92.92,0,0,0,.14-.76,3.68,3.68,0,0,0-.37-.87c-.2-.39-.48-.87-.82-1.42s-.73-1.17-1.16-1.85-.9-1.37-1.4-2.09c-2.81.62-5.63,1.26-8.44,1.93-.13.84-.26,1.65-.39,2.42s-.25,1.55-.38,2.33a7.78,7.78,0,0,0-.1,2.47.91.91,0,0,0,.41.59,1.87,1.87,0,0,0,.74.28,3.83,3.83,0,0,0,.9,0l.9-.07.07.31q-3.33.78-6.65,1.61l-.08-.34a3.58,3.58,0,0,0,1.28-.77,2.83,2.83,0,0,0,.56-.62,6.9,6.9,0,0,0,.48-1.18,23,23,0,0,0,.65-2.64c.21-1,.45-2.26.71-3.61s.52-2.73.81-4.16.55-2.87.83-4.31.54-2.8.79-4.06c-.16-.19-.32-.39-.47-.59a5.57,5.57,0,0,0,.91-.82,5.76,5.76,0,0,0,.67-.89,6.89,6.89,0,0,0,.44-.84c.11-.26.2-.47.25-.63l.26-.06c1.05,1.54,2.05,3,3,4.39s1.84,2.72,2.69,4,1.67,2.53,2.46,3.74,1.58,2.4,2.36,3.58c.37.58.69,1.06,1,1.44l1,1.28.37.37a3.92,3.92,0,0,0,.72.5,3.43,3.43,0,0,0,1,.39,3.38,3.38,0,0,0,1.31,0l.08.37Q133.56,61.11,129,62.11Zm-8.32-17.57c-.07.29-.16.75-.28,1.38s-.26,1.38-.44,2.28-.36,1.91-.56,3-.41,2.35-.63,3.67q3.94-.93,7.91-1.81L125,50.6c-.58-.84-1.14-1.64-1.69-2.4l-1.48-2.11Z"/><path class="cls-3" d="M159.2,56.24Q149.07,57.93,139,60l-.06-.31a8.73,8.73,0,0,0,1.48-.71,3,3,0,0,0,1.06-1,1.61,1.61,0,0,0,.16-.59,4.73,4.73,0,0,0,0-.85c0-.32,0-.64-.08-1a8.48,8.48,0,0,0-.15-1q-.09-.42-.21-1.17c-.09-.49-.19-1-.29-1.62s-.22-1.18-.34-1.8-.24-1.22-.35-1.78l-1.17-6-.21-1.07c-.08-.37-.16-.71-.26-1a5.89,5.89,0,0,0-.31-.82,1.38,1.38,0,0,0-.41-.52,3,3,0,0,0-1.38-.56,7.23,7.23,0,0,0-1.68,0l-.06-.31q5.19-1.05,10.4-2l.06.31c-.28.1-.6.22-1,.38a4.08,4.08,0,0,0-1,.6,2.77,2.77,0,0,0-.75,1,2.46,2.46,0,0,0-.15,1.41c.12.72.22,1.38.33,2s.2,1.18.3,1.76.21,1.17.32,1.79.25,1.3.4,2.06.25,1.33.36,1.9.21,1.1.31,1.63.21,1.08.33,1.64.25,1.2.38,1.89.29,1.27.44,1.86a2.74,2.74,0,0,0,.58,1.26,1.21,1.21,0,0,0,.56.21,4.64,4.64,0,0,0,1,.09q.56,0,1.2,0a10.75,10.75,0,0,0,1.27-.16l.8-.16c.37-.07.77-.17,1.2-.28s.88-.24,1.34-.38a9.11,9.11,0,0,0,1.18-.46,7.64,7.64,0,0,0,1.95-1.26,7,7,0,0,0,1.22-1.53,7.76,7.76,0,0,0,.75-1.75c.18-.61.35-1.24.5-1.9l.34,0Z"/><path class="cls-3" d="M162.45,55.71l0-.31a6.5,6.5,0,0,0,1.41-.64,3.25,3.25,0,0,0,1-1,1.34,1.34,0,0,0,.15-.56,5.58,5.58,0,0,0,0-.82,8.67,8.67,0,0,0-.09-1c0-.34-.09-.67-.14-1l-.17-1.17c-.06-.5-.14-1-.22-1.63s-.17-1.19-.27-1.81-.19-1.24-.28-1.8c-.31-2-.63-4-.94-6-.06-.37-.12-.74-.17-1.11a8.83,8.83,0,0,0-.22-1,5.16,5.16,0,0,0-.28-.84,1.27,1.27,0,0,0-.39-.56,2.58,2.58,0,0,0-1.25-.58,7.14,7.14,0,0,0-1.57-.08l-.05-.31c3.27-.53,6.53-1,9.81-1.5l0,.31a8.32,8.32,0,0,0-1.43.55A2.14,2.14,0,0,0,166.31,34a2.9,2.9,0,0,0-.11,1.38q.11.81.18,1.53t.21,1.53c.07.51.14,1,.22,1.54s.16,1,.24,1.61.17,1.12.27,1.76l1.05,7c.09.59.19,1.17.29,1.72a2.28,2.28,0,0,0,.46,1.14,2.4,2.4,0,0,0,1.33.62,6.66,6.66,0,0,0,1.54.13l0,.31C168.84,54.7,165.64,55.19,162.45,55.71Z"/><path class="cls-3" d="M191.08,48.28a6,6,0,0,1-1.49,2.22,7.59,7.59,0,0,1-2.47,1.55,13.47,13.47,0,0,1-3.28.81,16.7,16.7,0,0,1-2.69.15,9.43,9.43,0,0,1-1.89-.21,6.94,6.94,0,0,1-1.16-.33,1.46,1.46,0,0,0-.49-.15c-.07,0-.19.15-.36.42s-.34.54-.48.8l-.28,0c-.32-2-.63-4.1-1-6.15l.32-.05a10.28,10.28,0,0,0,1,1.53A14.13,14.13,0,0,0,178,50.26a8.26,8.26,0,0,0,1.28,1.07,5.76,5.76,0,0,0,1.23.66,9.52,9.52,0,0,0,1.5.38,6.2,6.2,0,0,0,5.41-1.66,4.36,4.36,0,0,0,1.07-3.58,3.84,3.84,0,0,0-.47-1.49,3.54,3.54,0,0,0-.92-1,5,5,0,0,0-1.27-.69,13.49,13.49,0,0,0-1.52-.44q-.81-.19-1.41-.3L181.76,43c-.35-.07-.7-.15-1.07-.21s-.82-.17-1.33-.29a7.25,7.25,0,0,1-1.73-.64,6.87,6.87,0,0,1-1.53-1.09,6.72,6.72,0,0,1-1.16-1.48,5,5,0,0,1-.61-1.83,6.17,6.17,0,0,1,.25-3A6,6,0,0,1,176,32.18a7.43,7.43,0,0,1,2.36-1.52,12.63,12.63,0,0,1,5.53-.85,9.94,9.94,0,0,1,1.79.31,5.39,5.39,0,0,1,1.07.39,2.6,2.6,0,0,0,.41.19c.07,0,.19-.15.37-.42s.34-.54.49-.81l.36,0c.22,1.92.43,3.84.65,5.75l-.36,0a12.74,12.74,0,0,0-1.24-1.92,9.47,9.47,0,0,0-1.66-1.63,6.87,6.87,0,0,0-2-1.07,5.31,5.31,0,0,0-2.4-.21,6.29,6.29,0,0,0-1.88.52A4.5,4.5,0,0,0,178,32a3.9,3.9,0,0,0-.87,1.52A4.53,4.53,0,0,0,177,35.4a3.52,3.52,0,0,0,1.39,2.5,7.71,7.71,0,0,0,2.89,1.24c.45.11.87.2,1.27.28l1.16.22,1.15.22,1.23.26A7.42,7.42,0,0,1,189.79,42a5.59,5.59,0,0,1,1.62,3.55A5.65,5.65,0,0,1,191.08,48.28Z"/><path class="cls-3" d="M208.48,50.08l0-.32a2.19,2.19,0,0,0,.45-.1,3.65,3.65,0,0,0,.75-.28,2,2,0,0,0,.66-.49.94.94,0,0,0,.25-.74,3.85,3.85,0,0,0-.25-.91c-.15-.42-.36-.92-.62-1.52s-.56-1.26-.9-2-.71-1.48-1.1-2.27q-4.29.36-8.58.78c-.24.82-.48,1.6-.71,2.35s-.45,1.49-.68,2.25a8.08,8.08,0,0,0-.43,2.44,1,1,0,0,0,.32.64,2,2,0,0,0,.7.37,3.61,3.61,0,0,0,.88.16l.89.06,0,.31c-2.25.22-4.51.45-6.76.7l0-.34a3.81,3.81,0,0,0,1.37-.59,2.88,2.88,0,0,0,.63-.54A6.61,6.61,0,0,0,196,49a24.73,24.73,0,0,0,1-2.52c.34-1,.74-2.19,1.17-3.49s.88-2.64,1.35-4,.93-2.77,1.39-4.16.91-2.7,1.33-3.91l-.39-.66a5.28,5.28,0,0,0,1-.69,5.8,5.8,0,0,0,.78-.79,6.1,6.1,0,0,0,.54-.77,5.79,5.79,0,0,0,.33-.59l.27,0,2.36,4.75q1.11,2.25,2.11,4.34c.67,1.39,1.31,2.74,1.93,4L213,44.32a16.07,16.07,0,0,0,.78,1.56l.79,1.4c0,.08.16.22.32.42a4.17,4.17,0,0,0,.64.59,3.37,3.37,0,0,0,.94.52,3.52,3.52,0,0,0,1.3.19l0,.38Q213.14,49.7,208.48,50.08Zm-5.87-18.54c-.1.28-.26.73-.45,1.33s-.45,1.34-.74,2.21-.61,1.84-1,2.93-.71,2.28-1.11,3.55q4-.39,8-.72c-.45-.91-.9-1.81-1.36-2.72s-.9-1.77-1.33-2.6-.83-1.59-1.19-2.28S202.85,32,202.61,31.54Z"/><path class="cls-3" d="M240.69,31.61c-.19-.37-.41-.76-.66-1.16s-.51-.77-.78-1.12-.51-.66-.77-1a4.94,4.94,0,0,0-.64-.65,3.6,3.6,0,0,0-1.53-.78,9.49,9.49,0,0,0-2.08-.16l-1.09,0-.92,0-1,0-1.22.06c0,.52.05,1.23.08,2.12s.07,1.84.11,2.82.09,1.95.13,2.91.08,1.73.11,2.37c.1,2.32.21,4.63.31,7,0,.6.07,1.18.13,1.73a2.29,2.29,0,0,0,.36,1.16,2.39,2.39,0,0,0,1.4.88c.59.14,1.12.24,1.59.31v.31q-5.18.21-10.35.5l0-.31a10.15,10.15,0,0,0,1.58-.4,3.27,3.27,0,0,0,1.44-1.11,1,1,0,0,0,.21-.53c0-.24.07-.52.09-.82s0-.63,0-1,0-.7,0-1,0-.68,0-1.16,0-1-.05-1.59,0-1.19-.07-1.82-.06-1.22-.09-1.78q-.27-5.18-.53-10.35l-1.22.06-1,.06-.91.06c-.32,0-.68.06-1.1.08a7.7,7.7,0,0,0-2.05.41,3.84,3.84,0,0,0-1.44,1,4.22,4.22,0,0,0-.57.7c-.21.31-.43.64-.66,1a10.62,10.62,0,0,0-.65,1.16,6.31,6.31,0,0,0-.46,1.19l-.3-.08c.19-2,.39-4,.58-6,.52.07,1,.13,1.42.16a16,16,0,0,0,1.88,0l2.25-.09,1.91-.09,1.89-.1,2.21-.11,2.18-.1,1.92-.1,1.91-.11c.66,0,1.41-.07,2.25-.1a10.63,10.63,0,0,0,1.8-.23c.47-.11,1-.24,1.46-.4L241,31.51Z"/><path class="cls-3" d="M243.29,48.2v-.31a7.5,7.5,0,0,0,1.48-.44,3.32,3.32,0,0,0,1.15-.84,1.35,1.35,0,0,0,.23-.54c0-.23.08-.5.11-.82s0-.64,0-1,0-.69,0-1,0-.69,0-1.19V40.42c0-.6,0-1.21,0-1.84s0-1.25,0-1.81l-.12-6.1c0-.38,0-.76,0-1.13s0-.73-.07-1.05a6.39,6.39,0,0,0-.17-.87,1.4,1.4,0,0,0-.31-.61,2.69,2.69,0,0,0-1.15-.74,6.89,6.89,0,0,0-1.55-.29v-.31c3.3-.09,6.6-.14,9.9-.17v.31a9.69,9.69,0,0,0-1.49.36,2.11,2.11,0,0,0-1.2,1,2.75,2.75,0,0,0-.3,1.35q0,.81,0,1.53c0,.53,0,1,0,1.55s0,1,0,1.55,0,1.07,0,1.63,0,1.14,0,1.79l.09,7.07c0,.61,0,1.19.06,1.75a2.26,2.26,0,0,0,.3,1.19,2.39,2.39,0,0,0,1.23.8,6.82,6.82,0,0,0,1.5.33V48Q248.12,48.09,243.29,48.2Z"/><path class="cls-3" d="M279.46,41.6a11.73,11.73,0,0,1-6.64,5.91,13.42,13.42,0,0,1-9.24-.14,11.62,11.62,0,0,1-3.8-2.37,11.69,11.69,0,0,1-2.55-13.12A10.78,10.78,0,0,1,260,28.25,12,12,0,0,1,264.05,26a15,15,0,0,1,4.93-.73,12.66,12.66,0,0,1,5,1,11,11,0,0,1,3.7,2.63,10.64,10.64,0,0,1,2.24,3.72A11.45,11.45,0,0,1,280.6,37,11,11,0,0,1,279.46,41.6ZM276.18,33a11.78,11.78,0,0,0-1.44-3.56,8.34,8.34,0,0,0-2.52-2.63,6.53,6.53,0,0,0-3.65-1.06,6.77,6.77,0,0,0-3.73.93,8.13,8.13,0,0,0-2.59,2.53,11.26,11.26,0,0,0-1.5,3.54,17.7,17.7,0,0,0-.49,4,16.39,16.39,0,0,0,.5,4.1,11.57,11.57,0,0,0,1.51,3.48,8,8,0,0,0,2.51,2.44,6.81,6.81,0,0,0,3.51.95,6.09,6.09,0,0,0,3.52-.93,8.62,8.62,0,0,0,2.55-2.52A12.23,12.23,0,0,0,276,40.83a16.09,16.09,0,0,0,.62-3.93A15,15,0,0,0,276.18,33Z"/><path class="cls-3" d="M308.71,28.46a2.78,2.78,0,0,0-1.24,1.25,4.94,4.94,0,0,0-.44,1.71c-.11.84-.23,1.73-.34,2.69s-.24,1.94-.37,3.16-.25,2.51-.36,3.91c0,.58-.1,1.25-.16,2s-.11,1.47-.16,2.23-.1,1.51-.16,2.26-.11,1.43-.16,2a.3.3,0,0,1-.1.2A.4.4,0,0,1,305,50a.93.93,0,0,1-.55-.36l-4.54-6-4-5.17Q294,36,292.12,33.66c-1.25-1.56-2.58-3.16-4-4.82q-.33,6.6-.65,13.2-.08,1.59-.06,2.88a5,5,0,0,0,.31,1.92,2.32,2.32,0,0,0,1,1.14,6.8,6.8,0,0,0,2,.62l0,.31c-2.61-.14-5.23-.26-7.84-.37v-.32a6.58,6.58,0,0,0,1.55-.32,2.55,2.55,0,0,0,1.26-.93,4.29,4.29,0,0,0,.67-1.91q.18-1.28.33-3.06c.09-.89.17-2,.25-3.17s.16-2.52.22-3.92c0-.61.05-1.11.07-1.5s0-.78.06-1.16,0-.76.05-1.16,0-.92,0-1.53a3.32,3.32,0,0,0-.39-1.51,2.88,2.88,0,0,0-.81-.94,3.22,3.22,0,0,0-1.05-.52,10.63,10.63,0,0,0-1.1-.25V26c2.24.09,4.48.2,6.71.31q7.38,9.07,14.31,18.32c.27-3.54.55-7.07.83-10.61.06-.83.11-1.63.15-2.39a5.39,5.39,0,0,0-.15-1.82,2.94,2.94,0,0,0-1.06-1.51,6.14,6.14,0,0,0-2.37-.94l0-.31c2.73.19,5.46.41,8.19.64l0,.31A5.26,5.26,0,0,0,308.71,28.46Z"/><path class="cls-3" d="M346.89,54.65q-10.14-1.51-20.33-2.7l0-.31a8.19,8.19,0,0,0,1.62-.22,2.91,2.91,0,0,0,1.32-.63,1.5,1.5,0,0,0,.33-.51,4.65,4.65,0,0,0,.28-.8c.08-.31.16-.63.23-1s.13-.67.17-1,.09-.69.16-1.18.15-1,.23-1.63.16-1.19.23-1.82.16-1.24.22-1.8q.38-3,.73-6l.14-1.09a9.9,9.9,0,0,0,.07-1,6,6,0,0,0,0-.88,1.39,1.39,0,0,0-.23-.62,2.91,2.91,0,0,0-1.13-1,7.29,7.29,0,0,0-1.59-.56l0-.31c3.5.4,7,.84,10.49,1.3l0,.31c-.29,0-.63,0-1,.06a4.29,4.29,0,0,0-1.17.25,2.66,2.66,0,0,0-1,.68,2.42,2.42,0,0,0-.59,1.3l-.3,2c-.08.6-.17,1.19-.25,1.76s-.17,1.18-.25,1.8-.17,1.32-.26,2.08-.18,1.35-.25,1.93-.14,1.11-.21,1.65-.13,1.09-.19,1.66-.14,1.21-.23,1.91-.12,1.3-.16,1.91a2.72,2.72,0,0,0,.16,1.37,1.31,1.31,0,0,0,.47.38,5.05,5.05,0,0,0,.89.38c.35.12.73.24,1.15.34a10.63,10.63,0,0,0,1.25.25l.81.09c.37,0,.78.08,1.23.11s.91,0,1.38,0a9.61,9.61,0,0,0,1.27-.07,7.37,7.37,0,0,0,2.24-.6,6.93,6.93,0,0,0,1.64-1.07A8.12,8.12,0,0,0,347.66,50c.36-.52.72-1.08,1.07-1.66l.3.14C348.32,50.52,347.6,52.58,346.89,54.65Z"/><path class="cls-3" d="M350.15,55.15l.05-.31a6.83,6.83,0,0,0,1.53-.17,3.12,3.12,0,0,0,1.28-.62,1.24,1.24,0,0,0,.33-.49,6,6,0,0,0,.25-.78c.08-.3.16-.63.22-1s.13-.68.18-1,.11-.67.21-1.17.18-1,.29-1.61.21-1.19.31-1.81.2-1.24.29-1.79q.48-3,1-6l.18-1.11q.09-.55.12-1a8.4,8.4,0,0,0,0-.88,1.43,1.43,0,0,0-.2-.65,2.61,2.61,0,0,0-1-.94,6.63,6.63,0,0,0-1.47-.57l.05-.31q4.9.77,9.79,1.61l-.05.31a8.23,8.23,0,0,0-1.53.09,2.12,2.12,0,0,0-1.38.78A2.9,2.9,0,0,0,360,37q-.15.8-.3,1.5T359.45,40c-.1.5-.19,1-.28,1.52s-.17,1.05-.26,1.61-.19,1.12-.3,1.76l-1.17,7c-.1.59-.18,1.17-.25,1.73a2.22,2.22,0,0,0,.09,1.22,2.32,2.32,0,0,0,1.06,1,6.79,6.79,0,0,0,1.43.59l-.06.31Q354.94,55.9,350.15,55.15Z"/><path class="cls-3" d="M384.1,57.22a5.69,5.69,0,0,1-1.25,1.37,6.34,6.34,0,0,1-1.5.88,5.9,5.9,0,0,1-1.53.43,10.38,10.38,0,0,1-2.78,0q-1.5-.21-2.88-.48-5.42-1.08-10.85-2l.05-.31a6.8,6.8,0,0,0,1.57-.13,2.92,2.92,0,0,0,1.29-.56,1.29,1.29,0,0,0,.35-.49c.11-.22.22-.49.33-.78s.2-.62.29-.95.15-.67.21-1,.13-.67.24-1.17l.33-1.61c.11-.58.23-1.18.34-1.79s.23-1.23.33-1.79.22-1.16.3-1.63.17-.92.25-1.36.17-.91.24-1.38.17-1,.29-1.64c.07-.37.12-.74.17-1.13a10.81,10.81,0,0,0,.09-1.11c0-.36,0-.69,0-1a1.28,1.28,0,0,0-.2-.65,2.62,2.62,0,0,0-.86-.84,5.68,5.68,0,0,0-1.32-.51l.05-.31q5.5,1,11,2.07a21.37,21.37,0,0,1,2.33.61,10.44,10.44,0,0,1,2.06,1,6.56,6.56,0,0,1,2.36,2.35,4.44,4.44,0,0,1,.43,3.26,4.35,4.35,0,0,1-2.06,3,7.41,7.41,0,0,1-3.89.94l0,.12a9.59,9.59,0,0,1,2.16,1A7.28,7.28,0,0,1,383.77,51a5.6,5.6,0,0,1,1.05,2,4.57,4.57,0,0,1,.05,2.3A5.76,5.76,0,0,1,384.1,57.22Zm-2.26-16.43a4.86,4.86,0,0,0-1.71-2.14,10.06,10.06,0,0,0-3.63-1.35,10.75,10.75,0,0,0-1.25-.18,5.27,5.27,0,0,0-.88,0q-.06.18-.12.33a2,2,0,0,0-.13.37c0,.16-.08.34-.14.57s-.13.51-.22.88c-.16.71-.32,1.5-.5,2.36l-.48,2.45c-.15.76-.27,1.42-.38,2s-.17.88-.19,1l1.8.34c.49.1.89.16,1.19.2a6.83,6.83,0,0,0,4.69-.69,5,5,0,0,0,1.95-6.09Zm-.7,12.34a5.44,5.44,0,0,0-.53-1.61,5.33,5.33,0,0,0-1-1.39,6.18,6.18,0,0,0-1.43-1.08,9,9,0,0,0-1.33-.57,15.31,15.31,0,0,0-1.61-.39l-3.1-.6c-.13.65-.25,1.31-.38,2s-.24,1.28-.36,1.87-.2,1.1-.28,1.59-.16.9-.22,1.25c-.13.78-.22,1.43-.26,1.94a2.46,2.46,0,0,0,.22,1.33,2.26,2.26,0,0,0,.74.74,4.85,4.85,0,0,0,1.59.54,18.16,18.16,0,0,0,2,.27,6.14,6.14,0,0,0,2.2-.22,5.28,5.28,0,0,0,2.42-1.38,4.85,4.85,0,0,0,1.28-2.53A4.6,4.6,0,0,0,381.14,53.13Z"/><path class="cls-3" d="M404.76,66.29l-.3-.51c-.06-.11-.13-.24-.2-.39s-.16-.36-.26-.63-.25-.68-.47-1.23-.48-1.27-.67-1.8-.39-1.06-.59-1.58-.44-1.06-.69-1.6-.57-1.17-.94-1.86a13.08,13.08,0,0,0-1.06-1.64,3.61,3.61,0,0,0-1.39-1.13,4.9,4.9,0,0,0-.9-.34l-.72-.21-.81,3.45c-.22,1-.41,1.8-.54,2.48s-.24,1.21-.33,1.69a2.31,2.31,0,0,0,.07,1.24,3,3,0,0,0,.78,1,4.63,4.63,0,0,0,1.89.95l-.07.3q-5-1.19-10-2.3l.07-.31a10.5,10.5,0,0,0,1.59,0,2.6,2.6,0,0,0,1.29-.48,1.46,1.46,0,0,0,.38-.49,5.87,5.87,0,0,0,.33-.79q.15-.45.3-1c.1-.34.18-.68.26-1s.16-.67.28-1.16l.39-1.6c.15-.57.29-1.17.43-1.78s.27-1.22.4-1.77l1.35-6c.09-.37.17-.74.24-1.12s.13-.74.18-1.08a6.38,6.38,0,0,0,0-.95,1.38,1.38,0,0,0-.18-.67,2.45,2.45,0,0,0-.94-.9,11,11,0,0,0-1.41-.62l.07-.31,1.33.3,2.5.55c.94.2,1.87.41,2.8.63l2.27.54c1.45.34,2.72.69,3.82,1.05a8.09,8.09,0,0,1,2.87,1.58A6.21,6.21,0,0,1,410,47.36a5.14,5.14,0,0,1,.1,3.24,4.77,4.77,0,0,1-.95,1.91,5.57,5.57,0,0,1-1.54,1.28,7.06,7.06,0,0,1-2,.75,13.26,13.26,0,0,1-2.2.33l0,.09a4.15,4.15,0,0,1,.85,1,11.4,11.4,0,0,1,.69,1.4c.36.9.74,1.88,1.16,2.93s.78,2,1.11,2.81A9.76,9.76,0,0,0,408.91,66a6.43,6.43,0,0,0,2.31,1.61l-.08.3Q408,67.1,404.76,66.29Zm1.6-19.7a5.58,5.58,0,0,0-1.89-2.47,7.36,7.36,0,0,0-1.52-.88,10.37,10.37,0,0,0-1.76-.58c-.45-.11-.82-.18-1.11-.23a6.2,6.2,0,0,0-.66-.09,2.15,2.15,0,0,1-.14.3c0,.09-.08.2-.13.34l-.17.59-.3,1.07c-.19.71-.39,1.51-.61,2.4s-.43,1.75-.62,2.59-.37,1.56-.52,2.19-.23,1-.27,1.16c.87.2,1.69.36,2.46.47a11.73,11.73,0,0,0,2.29.08,6.2,6.2,0,0,0,1.95-.4,5,5,0,0,0,1.48-.87,5.21,5.21,0,0,0,1-1.25,5.63,5.63,0,0,0,.61-1.52A4.84,4.84,0,0,0,406.36,46.59Z"/><path class="cls-3" d="M424.59,71.67l.09-.3a3.79,3.79,0,0,0,.47.07,4.22,4.22,0,0,0,.8,0,2.43,2.43,0,0,0,.81-.22,1,1,0,0,0,.49-.61,4.31,4.31,0,0,0,.09-.93c0-.45,0-1,0-1.65s-.08-1.37-.14-2.17-.14-1.64-.22-2.51q-4.17-1.22-8.36-2.36l-1.51,1.94c-.48.61-1,1.23-1.45,1.86a7.72,7.72,0,0,0-1.27,2.12.94.94,0,0,0,.07.72,2,2,0,0,0,.52.59,4,4,0,0,0,.77.47l.82.37-.08.3q-3.3-.9-6.62-1.77l.09-.34a3.82,3.82,0,0,0,2.29-.33,6.52,6.52,0,0,0,1-.81,21.49,21.49,0,0,0,1.84-2c.7-.83,1.48-1.77,2.35-2.83L420.09,58c.94-1.12,1.87-2.24,2.8-3.38s1.82-2.2,2.65-3.18c-.05-.25-.09-.5-.14-.75a5.78,5.78,0,0,0,1.21-.28,6.28,6.28,0,0,0,1-.46,6.77,6.77,0,0,0,.79-.52c.23-.18.4-.32.53-.44l.25.08c.19,1.85.36,3.61.52,5.28s.31,3.27.44,4.8.26,3,.38,4.47.24,2.87.36,4.28c.05.68.1,1.26.18,1.73s.15,1,.25,1.6a2.56,2.56,0,0,0,.15.5,4.3,4.3,0,0,0,.38.79,3.81,3.81,0,0,0,.72.82,3.42,3.42,0,0,0,1.15.64l-.11.36C430.61,73.44,427.6,72.55,424.59,71.67Zm1.1-19.41c-.2.22-.5.58-.9,1.07s-.9,1.1-1.49,1.8-1.23,1.5-1.95,2.4L419,60.44q3.91,1.08,7.83,2.21c-.1-1-.2-2-.31-3s-.22-2-.33-2.91l-.3-2.56C425.84,53.39,425.76,52.75,425.69,52.26Z"/><path class="cls-3" d="M451.57,80.19c-.13-.24-.21-.42-.27-.54s-.1-.25-.17-.4a5.28,5.28,0,0,1-.2-.65c-.08-.28-.2-.7-.38-1.27s-.37-1.3-.52-1.84-.31-1.09-.47-1.63-.35-1.09-.56-1.66-.48-1.2-.79-1.92a13.18,13.18,0,0,0-.94-1.73A3.68,3.68,0,0,0,446,67.3a6.1,6.1,0,0,0-.87-.41l-.71-.26c-.41,1.29-.77,2.41-1.08,3.37s-.55,1.76-.74,2.42-.34,1.2-.47,1.66a2.29,2.29,0,0,0,0,1.24,3,3,0,0,0,.7,1.1,4.69,4.69,0,0,0,1.82,1.1l-.1.3q-4.9-1.6-9.84-3.13l.1-.3a9.44,9.44,0,0,0,1.59.1,2.56,2.56,0,0,0,1.33-.37,1.47,1.47,0,0,0,.42-.46,6.7,6.7,0,0,0,.39-.76c.13-.29.25-.6.38-.94s.24-.65.34-1,.21-.66.37-1.13.34-1,.53-1.56.38-1.14.56-1.74l.55-1.73L443,59c.12-.36.23-.73.33-1.1s.2-.73.27-1.06a5.74,5.74,0,0,0,.12-1,1.32,1.32,0,0,0-.12-.68,2.49,2.49,0,0,0-.87-1,10.84,10.84,0,0,0-1.36-.74l.09-.3,1.31.41,2.47.75c.91.28,1.83.57,2.74.87l2.23.72c1.43.46,2.67.92,3.75,1.36a8.25,8.25,0,0,1,2.75,1.82,6.3,6.3,0,0,1,1.61,2.61A5.13,5.13,0,0,1,458.2,65a4.79,4.79,0,0,1-1.1,1.83A5.57,5.57,0,0,1,455.45,68a7.34,7.34,0,0,1-2,.58,12.67,12.67,0,0,1-2.23.14l0,.09a4.33,4.33,0,0,1,.77,1.12,12.88,12.88,0,0,1,.58,1.45c.28.94.59,1.94.92,3s.63,2,.89,2.88a9.78,9.78,0,0,0,1.43,3,6.27,6.27,0,0,0,2.18,1.79l-.11.3C455.74,81.63,453.65,80.91,451.57,80.19Zm3.18-19.51a5.74,5.74,0,0,0-1.7-2.62,7.78,7.78,0,0,0-1.45-1,10.11,10.11,0,0,0-1.71-.73c-.45-.14-.82-.25-1.1-.32l-.65-.15c-.06.12-.12.21-.17.3a2,2,0,0,0-.15.32c-.06.14-.13.33-.22.57s-.22.6-.39,1.05q-.37,1-.81,2.34c-.29.87-.57,1.71-.83,2.52l-.69,2.15-.36,1.13c.85.28,1.66.5,2.42.67a10.6,10.6,0,0,0,2.29.27,5.92,5.92,0,0,0,2-.23,4.91,4.91,0,0,0,1.56-.75,5,5,0,0,0,1.14-1.15,5.63,5.63,0,0,0,.74-1.47A4.8,4.8,0,0,0,454.75,60.68Z"/><path class="cls-3" d="M484.73,69.16a5.37,5.37,0,0,0-1.46.31,8,8,0,0,0-1.44.71c-.49.3-1,.66-1.61,1.06l-1.63,1.1c-.69.46-1.39.94-2.12,1.45l-2.09,1.45-1.58,1.07-2.22,5.89c-.21.57-.4,1.13-.57,1.67a2.06,2.06,0,0,0,.72,2.54c.44.32.86.61,1.27.85l-.11.3q-4.67-1.78-9.35-3.49l.11-.3a8.23,8.23,0,0,0,1.49.23,3.34,3.34,0,0,0,1.6-.46,1,1,0,0,0,.42-.42,8.2,8.2,0,0,0,.41-.75c.14-.28.28-.58.41-.91s.26-.65.37-1c.23-.54.48-1.18.77-1.93s.64-1.66,1-2.74c0-.07-.07-.31-.16-.7s-.2-.86-.33-1.44l-.43-1.9c-.15-.7-.31-1.39-.47-2.06s-.3-1.29-.45-1.87-.26-1.07-.37-1.44l-.52-2a8.34,8.34,0,0,0-.56-1.56,5.66,5.66,0,0,0-.71-1.15,2.52,2.52,0,0,0-1-.72l.11-.3q4.78,1.7,9.57,3.46l-.11.3c-.33-.1-.65-.19-1-.26a4.75,4.75,0,0,0-1-.14,2.1,2.1,0,0,0-.79.11.84.84,0,0,0-.48.51,2.88,2.88,0,0,0,0,1.33c.11.63.23,1.27.37,1.92.1.44.22,1,.35,1.58s.27,1.27.44,2,.33,1.41.49,2.14.31,1.42.44,2.07q.62-.41,1.53-1l1.86-1.3,1.8-1.27c.57-.41,1-.73,1.32-1l.55-.41c.2-.16.41-.33.61-.51a7.53,7.53,0,0,0,.56-.57,2,2,0,0,0,.37-.59,1.09,1.09,0,0,0,0-.83,1.86,1.86,0,0,0-.48-.66A6,6,0,0,0,480,67l-.86-.48.11-.29q3.63,1.38,7.25,2.82l-.12.29A5.64,5.64,0,0,0,484.73,69.16Z"/><path class="cls-4" d="M80,344.89a537.5,537.5,0,0,0,80,17.59v-293A537.5,537.5,0,0,0,80,87.11Z"/><path class="cls-5" d="M361,360.11a514.16,514.16,0,0,0,73-17.75V89.64a514.16,514.16,0,0,0-73-17.75Z"/><path class="cls-6" d="M448,94.48v243c10.9-4,21.26-8.28,31-12.88V107.36C469.26,102.76,458.9,98.46,448,94.48Z"/><path class="cls-6" d="M66,91.64c-12,4.09-23.34,8.57-34,13.4V327c10.66,4.83,22,9.31,34,13.4Z"/><path class="cls-7" d="M347,69.67A667.24,667.24,0,0,0,173,67.8V364.2a659.88,659.88,0,0,0,80,4.8,654,654,0,0,0,94-6.67Z"/></svg>